<?xml version="1.0" standalone="no"?>
<!DOCTYPE svg PUBLIC "-//W3C//DTD SVG 20010904//EN"
 "http://www.w3.org/TR/2001/REC-SVG-20010904/DTD/svg10.dtd">
<svg version="1.0" xmlns="http://www.w3.org/2000/svg"
 width="625.000000pt" height="210.000000pt" viewBox="0 0 625.000000 210.000000"
 preserveAspectRatio="xMidYMid meet">

<g transform="translate(0.000000,210.000000) scale(0.100000,-0.100000)"
fill="#000000" stroke="none">
<path d="M2990 2085 c-30 -7 -154 -27 -275 -44 -334 -48 -479 -90 -622 -184
-91 -59 -159 -122 -213 -197 -25 -34 -67 -85 -94 -113 -63 -67 -128 -154 -172
-233 -33 -60 -38 -64 -109 -93 -230 -96 -642 -172 -852 -157 -213 16 -346 69
-467 188 -88 86 -131 105 -166 73 -68 -62 61 -231 245 -320 152 -74 234 -90
475 -89 180 0 222 4 341 27 109 21 266 62 400 103 15 4 15 -1 3 -48 -18 -69
-18 -185 2 -365 9 -82 14 -187 12 -235 -4 -79 -7 -91 -43 -150 -52 -83 -53
-123 -5 -173 55 -57 97 -80 125 -67 16 7 26 7 34 -1 18 -18 55 7 83 59 31 57
44 122 58 289 14 172 29 216 98 284 32 31 97 83 146 116 58 39 121 94 185 162
63 68 103 103 117 103 48 0 182 82 319 195 76 63 143 115 147 115 4 0 8 -38 8
-85 0 -55 4 -88 13 -95 6 -7 77 -42 157 -79 100 -46 146 -72 148 -85 2 -10
-10 -37 -27 -61 -38 -52 -40 -94 -7 -131 23 -27 24 -27 49 -11 14 9 42 37 63
63 35 42 39 53 42 115 5 77 13 64 -115 180 -51 46 -90 96 -81 104 6 6 157
-119 180 -148 15 -20 52 -124 77 -224 14 -50 94 -153 120 -153 13 0 24 14 35
40 29 74 22 104 -53 233 -37 64 -83 154 -101 199 -28 73 -32 90 -26 143 10 94
22 129 55 148 40 23 41 23 41 -23 0 -49 17 -84 59 -124 17 -17 31 -40 31 -52
0 -26 3 -29 49 -39 22 -5 31 -4 27 3 -7 12 29 26 44 17 18 -11 12 -35 -7 -28
-12 5 -8 -5 12 -28 17 -20 33 -31 36 -26 7 10 18 -15 20 -46 1 -12 5 -4 8 18
l6 40 18 -30 c17 -28 18 -22 3 15 -5 12 9 21 66 39 78 25 110 52 174 146 39
57 40 67 18 146 l-16 58 44 58 c25 32 48 64 53 72 11 19 -12 31 -59 31 l-39 0
6 43 c4 23 9 57 13 74 9 46 -12 51 -108 23 -98 -28 -105 -26 -268 70 -63 37
-143 82 -177 99 -116 58 -246 74 -363 46z m216 -41 c73 -25 77 -36 4 -13 -34
10 -76 19 -94 19 -18 0 -98 -20 -177 -44 -94 -28 -173 -46 -229 -50 -372 -30
-606 -136 -773 -350 -34 -44 -88 -108 -119 -143 -55 -61 -141 -182 -154 -216
-15 -41 -317 -158 -493 -191 -122 -23 -131 -18 -16 9 215 49 460 151 492 204
55 90 107 164 154 217 30 33 83 98 119 144 83 106 160 169 285 231 143 71 358
119 532 119 26 0 109 18 183 39 149 44 211 49 286 25z m329 -149 c54 -25 111
-55 126 -66 27 -19 31 -19 88 -4 65 17 107 19 115 7 2 -4 -3 -58 -11 -120 -16
-111 -16 -114 5 -175 29 -82 28 -114 -8 -170 -38 -61 -48 -61 -15 0 32 60 31
87 -1 166 l-26 64 14 107 c8 58 11 106 7 106 -4 0 -38 -7 -75 -16 l-67 -15
-41 29 c-23 16 -80 50 -128 76 -77 42 -99 56 -84 56 2 0 47 -20 101 -45z
m-557 -417 c11 -24 27 -65 37 -93 14 -40 36 -68 113 -140 94 -89 142 -160 142
-212 0 -11 15 -65 34 -119 19 -55 33 -100 32 -102 -6 -6 -67 141 -77 186 -25
108 -57 153 -184 256 -46 38 -56 55 -121 204 -8 20 -21 32 -33 32 -17 0 -112
-61 -326 -212 -112 -79 -220 -144 -255 -152 -14 -4 -3 5 23 19 56 30 141 90
312 219 148 112 221 156 256 156 22 0 31 -8 47 -42z m725 -113 c15 -43 15 -45
-4 -45 -16 0 -19 7 -19 45 0 25 2 45 4 45 2 0 11 -20 19 -45z m-1509 -207
c-53 -104 -152 -214 -270 -298 -91 -66 -159 -136 -179 -183 -17 -41 -32 -146
-40 -271 -7 -109 -33 -223 -65 -286 -19 -37 -70 -80 -95 -80 -5 0 4 9 22 20
18 10 39 29 47 42 32 49 57 172 66 328 10 167 20 221 49 278 25 49 99 119 186
176 88 58 194 162 248 244 46 69 56 79 31 30z m1235 -338 c0 -10 -3 -8 -9 5
-12 27 -12 43 0 25 5 -8 9 -22 9 -30z m-31 -21 c-3 -8 -7 -3 -11 10 -4 17 -3
21 5 13 5 -5 8 -16 6 -23z m-1912 -645 c-11 -8 -29 -14 -40 -14 -16 1 -13 5
14 20 39 20 56 17 26 -6z m32 -36 c-8 -12 -21 -24 -29 -26 -8 -3 -3 7 10 22
30 32 39 34 19 4z"/>
<path d="M4360 999 c-14 -6 -35 -19 -47 -31 -20 -19 -23 -19 -45 -4 -12 9 -30
16 -39 16 -21 0 -69 -55 -69 -78 0 -12 -17 -23 -51 -35 -103 -37 -170 -134
-214 -312 -29 -116 -29 -115 -13 -115 6 0 20 -8 30 -17 18 -16 19 -16 9 10
-10 26 -9 27 24 27 38 0 45 -15 18 -36 -16 -12 -9 -13 48 -14 53 0 72 4 94 21
22 18 29 20 36 8 5 -8 9 -19 9 -25 0 -13 47 -55 109 -96 23 -15 41 -32 41 -37
0 -5 -23 -15 -51 -22 -28 -7 -54 -20 -57 -27 -2 -8 -14 -18 -26 -23 -18 -8
-16 -9 7 -4 34 7 70 -2 62 -16 -10 -15 29 3 43 20 11 13 14 14 21 2 7 -11 14
-10 38 7 16 12 63 29 104 38 100 22 125 36 133 75 10 51 7 67 -16 89 -12 11
-16 20 -9 20 27 0 61 -48 61 -88 0 -51 18 -66 70 -58 47 7 146 50 172 73 14
12 18 30 17 73 -1 31 4 66 10 78 14 26 45 36 68 23 17 -10 17 -11 -2 -12 -36
-3 -40 -4 -52 -12 -8 -5 -13 -31 -13 -68 0 -33 -4 -68 -9 -78 -13 -23 -133
-78 -195 -90 -28 -5 -57 -18 -70 -31 l-21 -22 27 6 c23 5 26 3 21 -11 -5 -12
-2 -15 10 -10 9 3 17 2 17 -3 0 -17 23 -11 49 13 15 13 51 31 82 40 30 9 66
29 80 43 22 23 24 34 24 114 0 117 9 123 13 9 l3 -90 -38 -38 c-26 -26 -56
-43 -95 -55 -58 -17 -97 -46 -44 -32 25 6 26 5 16 -14 -11 -21 -11 -21 14 -4
24 15 26 15 20 0 -9 -23 12 -20 49 6 25 18 29 19 24 5 -8 -22 4 -22 34 2 13
10 60 26 104 36 105 22 161 47 170 75 6 20 12 22 67 18 49 -4 82 -16 190 -72
206 -107 241 -104 522 49 48 26 102 51 120 55 l31 8 -31 1 c-18 1 -72 -19
-135 -50 -130 -63 -235 -99 -291 -99 -48 0 -106 24 -173 70 -69 48 -184 99
-237 106 l-48 7 0 61 c0 163 -81 308 -223 404 -103 68 -167 87 -302 87 -146 0
-172 -11 -180 -74 -9 -64 -19 -94 -34 -99 -10 -3 -11 0 -1 18 18 34 8 134 -16
167 -24 32 -32 35 -64 22z m53 -27 c9 -10 19 -34 22 -53 6 -34 6 -34 -9 6 -9
22 -16 41 -16 43 0 1 -13 2 -29 2 -23 0 -42 -14 -89 -65 -53 -58 -63 -65 -98
-65 -87 -1 -159 -58 -225 -181 -42 -78 -44 -59 -2 24 50 100 147 177 223 177
28 0 45 11 101 65 70 68 95 77 122 47z m368 -42 c88 -16 190 -72 250 -138 62
-67 117 -177 124 -247 l5 -50 -15 54 c-42 147 -130 263 -244 321 -68 34 -119
48 -216 59 l-70 8 56 2 c31 0 81 -3 110 -9z m-281 -159 c0 -4 -42 -27 -92 -51
l-93 -43 50 -14 c28 -8 57 -21 65 -30 13 -13 11 -18 -25 -49 -47 -41 -167
-101 -216 -109 -25 -5 -20 -1 20 14 85 32 223 123 208 137 -2 3 -33 13 -68 23
-35 10 -64 22 -64 26 0 5 45 27 99 49 77 30 95 41 80 47 -16 6 -14 8 9 8 15 1
27 -3 27 -8z m-412 -93 c19 -19 15 -26 -29 -49 -36 -18 -41 -19 -35 -4 3 9 6
20 6 25 0 10 29 40 39 40 4 0 12 -5 19 -12z m1079 -210 c-3 -8 -6 -5 -6 6 -1
11 2 17 5 13 3 -3 4 -12 1 -19z"/>
<path d="M4113 423 c-22 -8 -14 -20 37 -58 72 -53 68 -67 -24 -80 -28 -5 -45
-12 -43 -19 2 -6 -10 -16 -27 -23 -31 -11 -31 -11 17 -12 29 -1 46 -5 42 -11
-12 -19 24 -10 44 11 10 11 40 26 67 33 26 6 49 17 51 23 2 5 -26 29 -61 51
-44 28 -67 49 -72 66 -6 26 -9 28 -31 19z"/>
<path d="M4588 355 c-2 -19 0 -35 4 -35 4 0 8 16 8 35 0 19 -2 35 -4 35 -2 0
-6 -16 -8 -35z"/>
</g>
</svg>
